<svg width="172" height="172" viewBox="0 0 172 172" fill="none" xmlns="http://www.w3.org/2000/svg">
<g clip-path="url(#clip0_49_1048)">
<path d="M15.4628 62.7853C18.9951 74.9217 23.718 87.1498 30.2668 98.0066C33.1611 102.816 36.9835 107.488 42.5676 109.155C47.6749 110.686 53.109 109.29 57.84 107.201C63.3594 104.76 68.4738 101.402 73.5042 98.1123C79.1462 94.4198 84.7029 90.5973 90.5466 87.2258C100.1 81.7026 110.873 77.2766 122.074 77.3003C135.693 77.3307 147.15 84.976 157.763 92.673C158.603 93.2892 159.37 94.3818 159.393 95.4564C159.414 96.3314 158.803 96.8423 158.008 96.2719C148.153 89.322 137.78 82.0149 125.287 81.5085C113.661 81.0347 102.528 85.5937 92.6455 91.311C86.7407 94.729 81.1076 98.5981 75.3813 102.314C70.152 105.712 64.8082 109.211 59.0118 111.576C54.2645 113.512 49.0588 114.6 44.0063 113.244C38.1157 111.672 33.5874 107.051 30.2399 102.191C26.1793 96.2764 23.0813 89.6338 20.2296 83.0816C17.2296 76.1543 14.6814 69.032 12.5699 61.7916C12.3424 61.0331 12.5511 60.049 13.5122 60.2805C14.4733 60.5119 15.2039 61.9195 15.4628 62.7853Z" fill="url(#paint0_linear_49_1048)"/>
<path d="M149.079 75.7121C152.661 80.0253 156.235 84.3308 159.81 88.6517C161.481 90.6671 163.236 92.6435 164.823 94.7286C166.232 96.5769 167.482 98.7717 167.429 101.16C167.423 101.444 167.419 102.035 167.059 102.183C164.218 103.285 161.268 102.998 158.288 102.788C154.97 102.549 151.645 102.365 148.32 102.211C141.577 101.903 134.821 101.796 128.066 101.857C126.592 101.867 124.77 97.9024 126.412 97.8606C132.967 97.6932 139.516 97.7332 146.066 97.9728C149.299 98.0967 152.532 98.2667 155.765 98.4827C158.699 98.6931 161.858 99.2014 164.676 98.1228L164.307 99.1464C164.349 97.3881 162.767 96.0707 161.722 94.8111L157.119 89.2765C153.994 85.5206 150.868 81.7494 147.742 77.9935C147.209 77.36 146.416 75.8607 146.987 75.0507C147.588 74.1945 148.685 75.2618 149.095 75.7427L149.079 75.7121Z" fill="url(#paint1_linear_49_1048)"/>
</g>
<defs>
<linearGradient id="paint0_linear_49_1048" x1="17.925" y1="83.6336" x2="122.715" y2="116.777" gradientUnits="userSpaceOnUse">
<stop stop-color="#0165C4"/>
<stop offset="1" stop-color="#F738FE"/>
</linearGradient>
<linearGradient id="paint1_linear_49_1048" x1="128.953" y1="100.645" x2="156.196" y2="112.673" gradientUnits="userSpaceOnUse">
<stop stop-color="#0165C4"/>
<stop offset="1" stop-color="#F738FE"/>
</linearGradient>
<clipPath id="clip0_49_1048">
<rect width="139.199" height="103.061" fill="white" transform="matrix(0.711754 0.702428 0.702428 -0.711754 0 73.354)"/>
</clipPath>
</defs>
</svg>
