<svg width="142" height="93" viewBox="0 0 142 93" fill="none" xmlns="http://www.w3.org/2000/svg">
<g clip-path="url(#clip0_49_1051)">
<path d="M8.1471 67.906C13.0943 73.6298 18.3991 79.3087 25.9746 81.2229C32.7452 82.9278 39.917 81.6112 46.1396 78.6978C52.9141 75.5227 58.4959 70.0991 62.6474 63.9128C64.7835 60.7306 66.5919 57.3493 68.1307 53.8359C68.8874 52.0895 69.5873 50.3089 70.228 48.5172C70.8687 46.7254 71.5214 44.907 71.5071 42.9831C71.4871 41.3386 70.7867 39.6711 69.4336 38.7021C68.003 37.6735 66.1716 37.8701 64.6464 38.5621C61.2011 40.127 58.6524 43.7961 57.0747 47.1466C54.0121 53.6244 53.588 62.8305 59.3043 68.0784C65.0205 73.3263 73.7198 72.237 80.2503 69.0866C86.7808 65.9362 93.2518 60.535 98.4493 55.0555C108.317 44.6594 115.503 31.6843 118.745 17.644C119.153 15.9062 119.478 14.1547 119.744 12.392C120.056 10.3684 116.181 12.3157 115.943 13.7128C113.858 26.1343 108.945 37.8831 101.336 47.9006C97.578 52.8421 93.2288 57.3504 88.3435 61.161C83.078 65.28 76.8289 69.3896 69.8273 68.4806C66.6794 68.0716 63.6486 66.621 61.6448 64.088C59.641 61.5549 58.6751 58.0574 58.6821 54.7174C58.689 51.3774 59.6036 48.1972 61.1649 45.3628C61.8341 44.1481 62.6386 42.9715 63.5931 41.9605C64.036 41.4956 64.4306 41.0488 65.1097 41.1276C65.9133 41.2153 66.5544 41.8406 66.9841 42.4894C68.7488 45.1783 66.7742 48.9987 65.7539 51.6308C64.5252 54.7954 63.091 57.8816 61.4066 60.8285C58.3162 66.2301 54.2165 71.2883 48.8944 74.6079C43.314 78.0907 36.4119 79.6281 29.9174 78.3965C22.1467 76.9323 16.7052 71.0939 11.7157 65.3747C10.6776 64.1883 7.207 66.8048 8.16403 67.9218L8.15437 67.9254L8.1471 67.906Z" fill="url(#paint0_linear_49_1051)"/>
<path d="M108.452 22.9547L115.345 12.4064L118.667 7.32867C119.593 5.91805 120.451 4.0894 121.912 3.16641L119.664 3.75154C121.149 4.83749 121.631 6.95243 122.132 8.61684C122.694 10.5025 123.178 12.4171 123.672 14.328C124.664 18.1596 125.635 22.2316 127.67 25.6732C128.441 26.9705 131.837 24.5371 131.222 23.1261C129.487 19.1621 128.302 15.1367 127.225 10.9599C126.69 8.90912 126.164 6.85476 125.477 4.83871C124.918 3.19597 124.286 1.76917 122.858 0.717417C122.253 0.27814 121.091 1.00053 120.61 1.30254C118.801 2.4442 117.585 4.14047 116.431 5.91347C115.156 7.8646 113.881 9.81574 112.597 11.7705L104.942 23.4906C104.417 24.2965 105.057 24.8889 105.87 24.7957C106.956 24.667 107.884 23.8212 108.458 22.9413L108.452 22.9547Z" fill="url(#paint1_linear_49_1051)"/>
</g>
<defs>
<linearGradient id="paint0_linear_49_1051" x1="21.9045" y1="50.0514" x2="89.0428" y2="87.3794" gradientUnits="userSpaceOnUse">
<stop stop-color="#0165C4"/>
<stop offset="1" stop-color="#F738FE"/>
</linearGradient>
<linearGradient id="paint1_linear_49_1051" x1="103.424" y1="9.07401" x2="126.753" y2="9.28475" gradientUnits="userSpaceOnUse">
<stop stop-color="#0165C4"/>
<stop offset="1" stop-color="#F738FE"/>
</linearGradient>
<clipPath id="clip0_49_1051">
<rect width="132.036" height="49.6241" fill="white" transform="translate(0 46.2256) rotate(-20.4934)"/>
</clipPath>
</defs>
</svg>
