<svg width="44" height="160" viewBox="0 0 44 160" fill="none" xmlns="http://www.w3.org/2000/svg">
<g clip-path="url(#clip0_51_1076)">
<path d="M22.5499 3.76008C14.2799 9.93008 4.5099 17.0701 2.4899 27.9101C0.339899 39.4601 10.3599 47.8201 18.2499 54.4701C26.1399 61.1201 35.2399 68.2101 40.1099 78.0701C42.3999 82.7101 43.5999 87.8201 43.2899 93.0001C42.9399 98.8601 40.7499 104.43 38.2599 109.69C32.5899 121.69 25.7399 133.11 17.8999 143.81C17.4599 144.41 16.8099 144.26 16.5699 143.62C16.2899 142.86 16.5299 141.67 16.9899 141.03C23.9399 131.4 30.1299 121.22 35.3699 110.56C37.8899 105.42 40.5199 100.03 40.9799 94.2401C41.3899 89.0701 39.7099 83.9701 37.2099 79.5001C31.6899 69.6601 22.2699 63.1001 13.9899 55.7801C9.9299 52.2001 5.8599 48.3601 3.0599 43.6801C0.259899 39.0001 -0.580101 33.6701 0.369899 28.3801C2.6499 15.6501 12.6699 7.47008 22.4699 0.160076C23.2099 -0.399924 23.5799 0.640076 23.6099 1.21008C23.6599 2.09008 23.2799 3.22008 22.5599 3.76008L22.5499 3.76008Z" fill="url(#paint0_linear_51_1076)"/>
<path d="M20.7101 126.16C18.5501 131.21 16.4601 136.29 14.4501 141.4C13.4701 143.88 12.5201 146.37 11.5801 148.86C11.1001 150.15 10.6201 151.43 10.1501 152.72C9.8101 153.65 9.4301 154.43 9.9701 155.34L8.9301 155.06C11.9401 153.02 14.2301 150.22 16.5101 147.43C18.7901 144.64 21.1601 141.73 23.5901 138.97C28.3901 133.51 33.6201 128.31 39.8501 124.48C40.6401 123.99 41.0001 124.9 41.0301 125.56C41.0701 126.42 40.7101 127.69 39.9401 128.2C33.7901 132.27 28.5501 137.42 23.7201 142.97C21.3601 145.69 19.0901 148.48 16.8101 151.26C14.5301 154.04 12.0901 156.87 9.0301 158.91C8.6001 159.2 8.2301 159.05 7.9901 158.63C6.5901 156.21 7.6801 153.26 8.5601 150.87C9.6501 147.92 10.7701 144.97 11.9101 142.04C14.1901 136.17 16.5801 130.34 19.0601 124.55C19.3001 123.99 19.9701 122.91 20.6901 123.47C21.4101 124.03 20.9901 125.55 20.7301 126.16L20.7101 126.16Z" fill="url(#paint1_linear_51_1076)"/>
</g>
<defs>
<linearGradient id="paint0_linear_51_1076" x1="2.34783" y1="22.2632" x2="69.1324" y2="74.5968" gradientUnits="userSpaceOnUse">
<stop stop-color="#0165C4"/>
<stop offset="1" stop-color="#F738FE"/>
</linearGradient>
<linearGradient id="paint1_linear_51_1076" x1="9.14954" y1="128.833" x2="21.0514" y2="158.095" gradientUnits="userSpaceOnUse">
<stop stop-color="#0165C4"/>
<stop offset="1" stop-color="#F738FE"/>
</linearGradient>
<clipPath id="clip0_51_1076">
<rect width="159.07" height="43.34" fill="white" transform="matrix(4.87838e-08 1 1 -4.87838e-08 0 0)"/>
</clipPath>
</defs>
</svg>
