<svg width="88" height="81" viewBox="0 0 88 81" fill="none" xmlns="http://www.w3.org/2000/svg">
<g clip-path="url(#clip0_51_1080)">
<path d="M84.7412 22.6173C62.6229 25.6873 41.1811 33.5352 22.2789 45.4282C16.949 48.783 11.868 52.4841 6.91493 56.3643C6.32497 56.8274 5.73076 56.5336 5.66976 55.834C5.59152 55.0055 6.15066 53.9233 6.7658 53.4049C24.2412 38.8002 45.4511 28.302 67.4424 22.5374C73.6457 20.9073 79.9515 19.6672 86.3046 18.7916C87.2407 18.6594 86.8561 20.3267 86.6965 20.7291C86.3599 21.5603 85.6966 22.4903 84.7508 22.6199L84.7412 22.6173Z" fill="url(#paint0_linear_51_1080)"/>
<path d="M16.8993 60.4059C11.8175 60.9802 6.70691 61.3915 1.59909 61.6379C1.25446 61.6491 1.05129 61.3255 0.983353 61.0381C0.43316 58.4164 1.30325 55.8646 2.48484 53.5413C3.83429 50.9006 5.54492 48.4188 7.09842 45.9052C10.3822 40.6045 13.5181 35.1606 17.042 30.007C17.3679 29.525 18.1752 28.8302 18.7421 29.3031C19.309 29.7759 18.769 31.0185 18.5089 31.4871C15.8402 36.2694 12.7892 40.856 9.90419 45.5182C8.50044 47.782 7.09927 50.0362 5.70518 52.3026C4.55312 54.168 3.32241 56.0951 3.78863 58.3734L3.17289 57.7736C8.27553 57.5465 13.3713 57.1519 18.4602 56.5899C19.3982 56.4892 19.0239 58.1179 18.8495 58.537C18.518 59.3489 17.8418 60.3272 16.8915 60.4349L16.8993 60.4059Z" fill="url(#paint1_linear_51_1080)"/>
</g>
<defs>
<linearGradient id="paint0_linear_51_1080" x1="71.0103" y1="64.7814" x2="68.6584" y2="12.7453" gradientUnits="userSpaceOnUse">
<stop stop-color="#0165C4"/>
<stop offset="1" stop-color="#F738FE"/>
</linearGradient>
<linearGradient id="paint1_linear_51_1080" x1="17.4387" y1="60.1891" x2="6.92516" y2="35.464" gradientUnits="userSpaceOnUse">
<stop stop-color="#0165C4"/>
<stop offset="1" stop-color="#F738FE"/>
</linearGradient>
<clipPath id="clip0_51_1080">
<rect width="63.39" height="73.27" fill="white" transform="matrix(0.258819 -0.965926 -0.965926 -0.258819 70.7734 80.1938)"/>
</clipPath>
</defs>
</svg>
