<svg width="109" height="121" viewBox="0 0 109 121" fill="none" xmlns="http://www.w3.org/2000/svg">
<g clip-path="url(#clip0_51_1083)">
<path d="M105.183 87.4794C103.856 72.6768 92.4356 61.2401 79.9554 54.4744C73.547 51.0016 66.6541 48.4902 59.7378 46.2073C52.3296 43.7586 44.8209 41.5962 37.243 39.7211C28.8122 37.6274 20.2378 35.6835 11.6127 34.5559C10.8641 34.4566 10.9527 35.2993 11.1466 35.7303C11.4412 36.3747 12.1992 37.1718 12.9318 37.3116C20.221 38.7018 27.5168 39.9861 34.7431 41.6903C41.8856 43.375 48.963 45.3036 55.9605 47.4854C68.9298 51.533 82.7908 56.1119 92.4877 66.0513C97.746 71.4363 101.44 78.3771 102.122 85.9407C102.195 86.7926 103.042 87.6167 103.785 87.9741C104.313 88.2303 105.26 88.37 105.18 87.4914L105.176 87.484L105.183 87.4794Z" fill="url(#paint0_linear_51_1083)"/>
<path d="M23.3228 47.1289C16.2127 43.7827 9.35962 39.9212 2.83365 35.542L3.9699 37.4519C4.02781 36.7636 4.09771 36.0782 4.14818 35.3945L3.82537 35.7362C9.96722 34.4994 16.1546 33.6527 22.3943 33.1406C23.9767 33.0115 21.9188 30.4054 20.8369 30.4809C14.4065 30.9167 8.01175 31.8097 1.68934 33.0864C1.51788 33.1411 1.41427 33.256 1.36653 33.4282C1.30862 34.1164 1.25527 34.8121 1.19736 35.5004C1.13872 36.2707 1.72271 37.0017 2.33361 37.4103C9.09407 41.9203 16.1759 45.9365 23.5427 49.3997C24.0609 49.6412 24.7929 49.7303 24.7933 48.9654C24.7937 48.2004 23.9042 47.4231 23.3005 47.1427L23.3228 47.1289Z" fill="url(#paint1_linear_51_1083)"/>
</g>
<defs>
<linearGradient id="paint0_linear_51_1083" x1="55.2758" y1="101.522" x2="56.7874" y2="25.5962" gradientUnits="userSpaceOnUse">
<stop stop-color="#0165C4"/>
<stop offset="1" stop-color="#F738FE"/>
</linearGradient>
<linearGradient id="paint1_linear_51_1083" x1="12.4632" y1="52.2321" x2="10.2331" y2="30.0504" gradientUnits="userSpaceOnUse">
<stop stop-color="#0165C4"/>
<stop offset="1" stop-color="#F738FE"/>
</linearGradient>
<clipPath id="clip0_51_1083">
<rect width="101" height="65" fill="white" transform="translate(52.998 120.085) rotate(-121.65)"/>
</clipPath>
</defs>
</svg>
