<svg width="136" height="136" viewBox="0 0 136 136" fill="none" xmlns="http://www.w3.org/2000/svg">
<g clip-path="url(#clip0_66_6135)">
<path d="M64.4693 132.538V88.1516H56.6714L47.0249 80.7236L42.781 82.3588L40.6767 81.8772L25.6426 87.7056C21.2798 89.5009 15.4379 95.1505 15.4379 103.534V132.599C15.4379 134.477 16.9604 136 18.8384 136H67.9307C66.0272 136 64.4693 134.442 64.4693 132.538Z" fill="#DD636E"/>
<path d="M24.2593 132.873V99.7792C24.2593 92.7911 28.3183 87.7049 32.1964 85.165L25.6426 87.7057C21.2798 89.5011 15.4379 95.1507 15.4379 103.534V132.6C15.4379 134.478 16.9604 136 18.8384 136H26.3229C25.1098 135.481 24.2593 134.276 24.2593 132.873Z" fill="#DA4A54"/>
<path d="M75.2877 77.4944C74.5647 77.2149 74.0841 76.519 74.082 75.7394L74.0762 68.4432C71.153 70.356 67.664 71.4727 63.9176 71.4727C59.7861 71.4727 56.1603 70.3273 53.2034 68.415L53.2036 75.728C53.2036 77.1719 51.9156 77.5196 51.3666 77.7326L50.961 77.8899L50.5059 79.3822L46.3877 80.969L46.4514 81.3762L56.6716 89.2461H64.4696V82.5474C64.4696 80.6436 66.0275 79.907 67.9309 79.907L81.4385 79.8954L75.2877 77.4944Z" fill="#FFCEBE"/>
<path d="M63.809 71.4708C59.7229 71.4509 56.134 70.3103 53.2034 68.415L53.2036 75.728C53.2036 77.1719 51.9156 77.5196 51.3666 77.7326L50.961 77.8899L50.5059 79.3822L46.3877 80.969L46.4514 81.3762L56.6716 89.2461H63.809V71.4708Z" fill="#FFB1A0"/>
<path d="M89.4144 42.252H88.417L81.9854 44.3172V53.8959L82.5132 54.4452C87.2926 55.0054 91.2701 51.5162 91.2701 47.2468C91.2703 45.4004 90.5805 43.6181 89.4144 42.252Z" fill="#FFCEBE"/>
<path d="M87.0214 42.7002L81.9857 44.3173V53.896L82.5135 54.4453C84.1535 54.6376 85.6986 54.3529 87.0214 53.7236V42.7002Z" fill="#FFB1A0"/>
<path d="M37.8821 42.252H38.8795L45.3111 44.3172V53.8959L44.7833 54.4452C40.0039 55.0054 36.0265 51.5162 36.0265 47.2468C36.0262 45.4004 36.716 43.6181 37.8821 42.252Z" fill="#FFCEBE"/>
<path d="M41.0619 47.247C41.0619 45.8448 41.4603 44.4803 42.1624 43.3062L38.8793 42.252H37.8818C36.7157 43.6181 36.0259 45.4004 36.0259 47.2468C36.0259 51.5162 40.0031 55.0054 44.7828 54.4452L45.3106 53.8959V53.7235C42.7784 52.5192 41.0619 50.0515 41.0619 47.247Z" fill="#FFB1A0"/>
<path d="M79.4407 42.2267C71.6117 37.8335 63.6483 37.6646 63.6483 37.6646C63.6483 37.6646 55.6848 37.8335 47.8558 42.2267C46.7582 42.8426 45.7276 43.2517 44.7706 43.4868V53.9596C44.7706 63.6849 52.3908 72.5677 63.9176 72.5677C74.1782 72.5677 82.526 64.2199 82.526 53.9596V43.4868C81.5689 43.2517 80.538 42.8426 79.4407 42.2267Z" fill="#FFDECF"/>
<path d="M54.6452 53.9595V39.3286C52.5106 39.9943 50.1782 40.9234 47.8558 42.2266C46.7582 42.8423 45.7276 43.2516 44.7706 43.4867V53.9592C44.7706 63.6846 52.3908 72.5673 63.9173 72.5673C65.5647 72.5673 67.1617 72.3495 68.6837 71.946C60.0679 69.7679 54.6452 62.1636 54.6452 53.9595Z" fill="#FFCEBE"/>
<path d="M51.8835 94.6994C52.5212 95.4291 53.6241 95.5183 54.371 94.9008L59.6859 90.5052C60.4663 89.8597 60.5561 88.6955 59.8836 87.9382L50.9607 77.8901L40.6765 81.8772L51.8835 94.6994Z" fill="#FFE07D"/>
<path d="M117.101 79.0864H101.388L99.8662 80.694H84.4034L82.8221 79.0864H76.0824C74.9926 79.7029 74.2565 80.8268 74.2565 82.1082V132.978C74.2565 134.26 74.9928 135.384 76.0827 136H117.101C119.005 136 120.562 134.442 120.562 132.538V82.5478C120.562 80.6438 119.004 79.0864 117.101 79.0864Z" fill="#FBC481"/>
<path d="M75.2797 132.538V82.5478C75.2797 80.6438 76.8376 79.0864 78.7411 79.0864H67.1096C65.2059 79.0864 63.6483 80.6441 63.6483 82.5478V132.538C63.6483 134.442 65.2062 136 67.1096 136H78.7411C76.8376 136 75.2797 134.442 75.2797 132.538Z" fill="#DD9973"/>
<path d="M82.8221 79.0859V100.66C82.8221 101.951 84.2552 102.726 85.3352 102.019L91.2162 98.1706C91.7562 97.817 92.4545 97.817 92.9945 98.1706L98.8755 102.019C99.9555 102.726 101.389 101.951 101.389 100.66V79.0859H82.8221Z" fill="#D6865F"/>
<path d="M92.1052 79.0859H82.8219V100.66C82.8219 101.951 84.2549 102.726 85.3349 102.019L91.2159 98.1706C91.486 97.9937 91.7955 97.9055 92.1052 97.9055V79.0859Z" fill="#B97359"/>
<path d="M85.4845 129.506H72.224C71.0903 129.506 70.1715 128.587 70.1715 127.453C70.1715 126.32 71.0905 125.401 72.224 125.401H85.4845C86.6182 125.401 87.537 126.32 87.537 127.453C87.537 128.587 86.6179 129.506 85.4845 129.506Z" fill="#D6865F"/>
<path d="M85.4845 122.695H72.224C71.0903 122.695 70.1715 121.776 70.1715 120.642C70.1715 119.509 71.0905 118.59 72.224 118.59H85.4845C86.6182 118.59 87.537 119.509 87.537 120.642C87.537 121.776 86.6179 122.695 85.4845 122.695Z" fill="#D6865F"/>
<path d="M85.4845 115.884H72.224C71.0903 115.884 70.1715 114.965 70.1715 113.831C70.1715 112.698 71.0905 111.779 72.224 111.779H85.4845C86.6182 111.779 87.537 112.698 87.537 113.831C87.537 114.965 86.6179 115.884 85.4845 115.884Z" fill="#D6865F"/>
<path d="M34.4178 136V106.045C34.4178 104.904 33.4988 103.979 32.3653 103.979C31.2317 103.979 30.3129 104.904 30.3129 106.045V136H34.4178Z" fill="#DA4A54"/>
<path d="M89.6131 35.6011C89.6131 35.6011 81.0682 23.4546 63.6371 23.4546C46.206 23.4546 37.6611 35.6011 37.6611 35.6011C35.2965 41.5689 39.789 48.12 47.8513 43.5956C55.6769 39.2043 63.6371 39.0354 63.6371 39.0354C63.6371 39.0354 71.5971 39.2043 79.4229 43.5956C87.4852 48.1197 91.9777 41.5689 89.6131 35.6011Z" fill="#FFE07D"/>
<path d="M50.0206 29.5349C50.0206 29.5349 51.556 27.3547 54.6452 24.6089C43.2626 27.6407 37.6611 35.601 37.6611 35.601C35.2965 41.5688 39.789 48.1199 47.8513 43.5955C49.6836 42.5673 51.5222 41.7728 53.2652 41.1557C49.5507 39.2321 48.1541 34.2455 50.0206 29.5349Z" fill="#FFD064"/>
<path d="M57.0278 6.76904C46.0084 8.80346 37.6611 18.4608 37.6611 30.0691V35.6013C37.6611 35.6013 41.854 31.7968 50.3447 29.5124C50.7083 19.761 53.3054 11.379 57.0278 6.76904Z" fill="#DD636E"/>
<path d="M70.2464 6.76904C73.9689 11.379 76.5659 19.761 76.9295 29.5124C85.4202 31.7965 89.6131 35.601 89.6131 35.601V30.0689C89.6131 18.4608 81.2658 8.80346 70.2464 6.76904Z" fill="#DD636E"/>
<path d="M61.357 7.19392H65.9172C66.7951 7.19392 67.6616 7.24333 68.5148 7.3363V4.1047C68.5148 1.84716 66.6676 0 64.4101 0H62.8641C60.6066 0 58.7594 1.84716 58.7594 4.1047V7.3363C59.6126 7.24306 60.4791 7.19392 61.357 7.19392Z" fill="#FFE07D"/>
<path d="M63.6371 4.1047C63.6371 2.43977 64.6433 1.00114 66.0761 0.358859C65.5658 0.130156 65.003 0 64.4101 0H62.8639C60.6063 0 58.7592 1.84716 58.7592 4.1047V7.3363C59.6124 7.24333 60.4788 7.19392 61.3567 7.19392H63.6368V4.1047H63.6371Z" fill="#FFD064"/>
<path d="M61.357 6.37305C59.849 6.37305 58.3745 6.51569 56.9449 6.78477C52.9476 11.3238 50.2039 19.802 50.0169 29.5993C53.7163 28.5743 58.2513 27.8316 63.6371 27.8316C69.0232 27.8316 73.5582 28.5743 77.2576 29.5993C77.0703 19.8017 74.3267 11.3235 70.3293 6.78477C68.8997 6.51542 67.4252 6.37305 65.9172 6.37305H61.357Z" fill="#DA4A54"/>
<path d="M63.6074 6.37305H61.357C59.849 6.37305 58.3745 6.51569 56.9449 6.78477C52.9476 11.3238 50.2039 19.802 50.0169 29.5993C52.1339 29.0125 54.5259 28.5193 57.193 28.204C57.6868 19.1921 60.1067 11.3493 63.6074 6.37305Z" fill="#DF4854"/>
<path d="M67.035 21.2358H60.2613C59.1276 21.2358 58.2088 20.3168 58.2088 19.1833C58.2088 18.0497 59.1279 17.1309 60.2613 17.1309H67.035C68.1687 17.1309 69.0875 18.0499 69.0875 19.1833C69.0877 20.3168 68.1687 21.2358 67.035 21.2358Z" fill="#DBEDFF"/>
</g>
<defs>
<clipPath id="clip0_66_6135">
<rect width="136" height="136" fill="white"/>
</clipPath>
</defs>
</svg>
