<svg width="136" height="136" viewBox="0 0 136 136" fill="none" xmlns="http://www.w3.org/2000/svg">
<path d="M89.2791 66.1937L67.2975 61.9199V47.6187H46.9492V61.9199L24.9677 66.1937C16.668 68.6373 10.9684 72.9734 10.9684 81.6259V112.57C10.9684 115.68 13.4898 118.201 16.6005 118.201H97.6462C100.757 118.201 103.278 115.681 103.278 112.57V81.6259C103.278 72.9734 97.5788 68.6373 89.2791 66.1937Z" fill="#FFF3DE"/>
<path d="M89.2791 66.1938L67.2975 61.9199C67.2975 67.5385 62.7425 72.0936 57.1239 72.0936C51.5043 72.0936 46.9492 67.5385 46.9492 61.9199L24.9677 66.1938C16.668 68.6373 10.9684 72.9734 10.9684 81.626V87.7354H26.1724V118.201H88.0744V87.7354H103.278V81.626C103.278 72.9734 97.5788 68.6373 89.2791 66.1938Z" fill="#FF9838"/>
<path d="M67.2975 61.9194V47.6172H58.9968V71.9177C63.7209 71.0389 67.2975 66.8978 67.2975 61.9194Z" fill="#FFE5C2"/>
<path d="M89.2791 66.1935L88.9698 66.1333C92.6627 68.7605 94.8862 72.4813 94.8862 77.8862V87.735H103.278V81.6257C103.278 72.9731 97.5788 68.637 89.2791 66.1935Z" fill="#FF8709"/>
<path d="M26.1724 65.9591V118.201H88.0744V65.9591L78.1166 64.0229V77.3032C78.1166 79.561 76.2863 81.3913 74.0284 81.3913H40.2183C37.9605 81.3913 36.1302 79.561 36.1302 77.3032V64.0229L26.1724 65.9591Z" fill="#2DD2E3"/>
<path d="M77.3571 29.1086H76.0652V23.9662C76.0652 18.8478 73.9641 13.8881 70.0856 10.548C67.0444 7.93018 62.7705 5.64435 57.1239 5.58105C51.4773 5.64435 47.2024 7.93018 44.1612 10.548C40.2827 13.8881 38.1815 18.8478 38.1815 23.9662V29.1086H36.8897C34.9961 29.1086 33.4615 30.6432 33.4615 32.5368V36.3365C33.4615 38.2301 34.9961 39.7647 36.8897 39.7647H38.1867C38.2925 44.74 40.3843 49.5295 44.1612 52.7814C47.2024 55.4003 51.4773 57.6861 57.1239 57.7484C62.7705 57.6861 67.0444 55.4003 70.0856 52.7814C73.8624 49.5295 75.9542 44.74 76.0611 39.7647H77.3571C79.2507 39.7647 80.7853 38.2301 80.7853 36.3365V32.5368C80.7853 30.6432 79.2507 29.1086 77.3571 29.1086Z" fill="#FFF3DE"/>
<path d="M77.3571 29.1088H76.0652V23.9664C76.0652 18.848 73.9641 13.8882 70.0856 10.5482C69.3665 9.92981 68.5769 9.33112 67.7178 8.77393L67.7147 42.1358C67.6078 47.1111 65.517 51.9006 61.7402 55.1525C60.6663 56.077 59.4367 56.9568 58.0494 57.7153C63.2395 57.4279 67.2135 55.2542 70.0856 52.7816C73.8635 49.5287 75.9542 44.7402 76.0611 39.7639H77.3581C79.2507 39.7639 80.7863 38.2292 80.7863 36.3356V32.537C80.7853 30.6434 79.2507 29.1088 77.3571 29.1088Z" fill="#FFE5C2"/>
<path d="M58.1055 0H56.1413C44.211 0 34.5396 9.67145 34.5396 21.6028V27.8221H79.7083V21.6028C79.7072 9.67145 70.0358 0 58.1055 0Z" fill="#FF9838"/>
<path d="M58.1055 0H56.1413C55.0809 0 54.0391 0.079895 53.0192 0.227234C63.4698 1.74109 71.4988 10.7329 71.4988 21.6028V27.8221H79.7072V21.6028C79.7072 9.67145 70.0358 0 58.1055 0Z" fill="#FF8709"/>
<path d="M80.6348 31.1519H33.6119C31.8688 31.1519 30.4545 29.7376 30.4545 27.9934C30.4545 26.2492 31.8688 24.835 33.6119 24.835H80.6348C82.379 24.835 83.7922 26.2492 83.7922 27.9934C83.7922 29.7376 82.379 31.1519 80.6348 31.1519Z" fill="#FF8709"/>
<path d="M57.2515 15.5951C58.3856 15.5951 59.3039 14.6758 59.3039 13.5427V0.0352782C58.9075 0.0134888 58.5081 0 58.1044 0H56.1413C55.8259 0 55.5125 0.010376 55.1992 0.0238648V13.5427C55.2002 14.6758 56.1185 15.5951 57.2515 15.5951Z" fill="#FF8709"/>
<path d="M65.9601 10.6936C67.0942 10.6936 68.0125 9.77429 68.0125 8.64124V2.40735C66.7155 1.73706 65.3417 1.1944 63.9077 0.794922V8.6402C63.9077 9.77429 64.827 10.6936 65.9601 10.6936Z" fill="#FF8709"/>
<path d="M48.2867 10.6936C49.4208 10.6936 50.3391 9.77429 50.3391 8.64124V0.794922C48.9051 1.1944 47.5313 1.73706 46.2343 2.40735V8.6402C46.2343 9.77429 47.1526 10.6936 48.2867 10.6936Z" fill="#FF8709"/>
<path d="M125.032 110.623H75.5018V89.3882C75.5018 88.4752 76.2427 87.7354 77.1558 87.7354H123.379C124.292 87.7354 125.032 88.4752 125.032 89.3882V110.623Z" fill="#EAB765"/>
<path d="M123.379 87.7354H115.101C116.014 87.7354 116.754 88.4752 116.754 89.3882V110.623H125.032V89.3882C125.032 88.4752 124.292 87.7354 123.379 87.7354Z" fill="#D9AB5E"/>
<path d="M122.551 133.775H13.4493C6.02118 133.775 0 127.753 0 120.325C0 112.898 6.02118 106.877 13.4493 106.877H122.551C129.979 106.877 136 112.898 136 120.325C136 127.753 129.979 133.775 122.551 133.775Z" fill="#8EBAC5"/>
<path d="M122.551 106.877H114.342C121.769 106.877 127.791 112.898 127.791 120.325C127.791 127.753 121.769 133.775 114.342 133.775H122.551C129.979 133.775 136 127.753 136 120.325C136 112.898 129.979 106.877 122.551 106.877Z" fill="#7CA1B1"/>
<path d="M13.4493 126.102C10.2639 126.102 7.672 123.511 7.672 120.325C7.672 117.14 10.2639 114.549 13.4493 114.549H122.551C125.736 114.549 128.328 117.14 128.328 120.325C128.328 123.511 125.736 126.102 122.551 126.102H13.4493Z" fill="#384949"/>
<path d="M128.328 120.325C128.328 123.516 125.741 126.102 122.551 126.102C119.361 126.102 116.774 123.516 116.774 120.325C116.774 117.135 119.361 114.549 122.551 114.549C125.741 114.549 128.328 117.135 128.328 120.325Z" fill="#DEECF1"/>
<path d="M19.2256 120.325C19.2256 123.516 16.6389 126.102 13.4493 126.102C10.2587 126.102 7.672 123.516 7.672 120.325C7.672 117.135 10.2587 114.549 13.4493 114.549C16.6389 114.549 19.2256 117.135 19.2256 120.325Z" fill="#DEECF1"/>
<path d="M53.594 120.325C53.594 123.516 51.0083 126.102 47.8177 126.102C44.6271 126.102 42.0403 123.516 42.0403 120.325C42.0403 117.135 44.6271 114.549 47.8177 114.549C51.0083 114.549 53.594 117.135 53.594 120.325Z" fill="#DEECF1"/>
<path d="M93.9597 120.325C93.9597 123.516 91.3729 126.102 88.1823 126.102C84.9917 126.102 82.406 123.516 82.406 120.325C82.406 117.135 84.9917 114.549 88.1823 114.549C91.3729 114.549 93.9597 117.135 93.9597 120.325Z" fill="#DEECF1"/>
</svg>
