<svg width="136" height="136" viewBox="0 0 136 136" fill="none" xmlns="http://www.w3.org/2000/svg">
<path d="M77.6749 82.5723L98.6085 88.1886C108.273 90.7817 114.992 99.5409 114.992 109.547V133.263C114.992 134.774 113.767 136 112.256 136H23.7445C22.2331 136 21.008 134.774 21.008 133.263V109.547C21.008 99.5409 27.727 90.7814 37.3915 88.1886L58.3252 82.5723H77.6749Z" fill="#9DC6FB"/>
<path d="M100.209 88.687C101.539 91.543 102.277 94.7103 102.277 98.0158V136H112.256C113.767 136 114.992 134.775 114.992 133.264V109.548C114.992 100.104 109.006 91.7741 100.209 88.687Z" fill="#80B4FB"/>
<path d="M68 101.092C77.4217 101.092 85.217 94.0188 86.3682 84.9047L77.6749 82.5723H58.3251L49.6318 84.9047C50.783 94.0191 58.5783 101.092 68 101.092Z" fill="#E4F6FF"/>
<path d="M95.2069 113.333H40.7931L37.476 136H98.524L95.2069 113.333Z" fill="#C38959"/>
<path d="M95.2069 113.333H89.1257L92.4428 136H98.524L95.2069 113.333Z" fill="#B17A4A"/>
<path d="M47.9929 85.3447L43.7399 86.4856L40.7931 113.333H44.9103L47.9929 85.3447Z" fill="#407093"/>
<path d="M91.0897 113.333H95.2069L92.2601 86.4856L88.0071 85.3447L91.0897 113.333Z" fill="#407093"/>
<path d="M77.6749 82.5722V70.686H58.3251V82.5722C58.3251 87.9155 62.6567 92.2471 68 92.2471C73.3433 92.2471 77.6749 87.9155 77.6749 82.5722Z" fill="#F1D0A5"/>
<path d="M58.3251 77.2305C61.3379 78.3599 64.5976 78.9791 68 78.9791C71.4021 78.9791 74.6621 78.3596 77.6749 77.2305V70.6865H58.3251V77.2305Z" fill="#F1B986"/>
<path d="M45.8862 37.2192V51.0604C45.8862 63.2736 55.7868 73.1742 68 73.1742C80.2132 73.1742 90.1138 63.2736 90.1138 51.0604V37.2192H45.8862Z" fill="#F1D0A5"/>
<path d="M90.1138 51.0604V37.2192H84.8619V56.8402C84.8619 61.1555 83.6214 65.1792 81.4839 68.5824C86.7303 64.539 90.1138 58.1964 90.1138 51.0604Z" fill="#F1B986"/>
<path d="M84.8223 9.27987L83.1619 6.02836C81.2728 2.32873 77.469 0 73.3146 0H63.0243C48.6739 0 37.0406 11.6333 37.0406 25.9837V41.6367L45.8862 50.4823L53.3027 38.267C53.6996 37.6133 54.409 37.2141 55.174 37.2141H80.8262C81.5912 37.2141 82.3005 37.6133 82.6976 38.267L90.1141 50.4823L98.9597 41.6367V23.417C98.9594 15.6092 92.6301 9.27987 84.8223 9.27987Z" fill="#407093"/>
<path d="M89.3201 10.0146C89.807 11.4448 90.075 12.9764 90.075 14.5712L90.1141 50.4821H90.6565L98.9594 41.6365V23.4168C98.9594 17.182 94.9216 11.8939 89.3201 10.0146Z" fill="#365E7D"/>
<path d="M94.5365 50.4821H90.1138V39.4029C90.1138 38.1938 91.094 37.2139 92.3028 37.2139H94.5365C96.9792 37.2139 98.9591 39.1941 98.9591 41.6365V46.0592C98.9594 48.5021 96.9792 50.4821 94.5365 50.4821Z" fill="#F1D0A5"/>
<path d="M41.4635 50.4821H45.8862V39.4029C45.8862 38.1938 44.906 37.2139 43.6972 37.2139H41.4635C39.0208 37.2139 37.0409 39.1941 37.0409 41.6365V46.0592C37.0406 48.5021 39.0208 50.4821 41.4635 50.4821Z" fill="#F1D0A5"/>
<path d="M82.7701 24.9952C83.9035 24.9952 84.8223 24.0764 84.8223 22.943V9.27977L83.1619 6.02826C82.5382 4.80665 81.7023 3.73884 80.7176 2.85059V22.9427C80.7176 24.0764 81.6367 24.9952 82.7701 24.9952Z" fill="#365E7D"/>
</svg>
