<svg width="64" height="60" viewBox="0 0 64 60" fill="none" xmlns="http://www.w3.org/2000/svg">
<path d="M61.6655 31.7812C62.6695 30.6605 63.2812 29.1811 63.2812 27.5625C63.2812 24.0736 60.442 21.2344 56.9531 21.2344H44.6709C45.8873 17.543 46.4062 12.645 46.4062 10.5455V8.4375C46.4062 3.78562 42.6206 0 37.9688 0H35.8594C34.8919 0 34.0481 0.658125 33.8133 1.5975L32.6644 6.19453C31.0542 12.6323 25.9425 19.7353 20.6522 21.0263C19.7255 18.6806 17.4375 17.0156 14.7656 17.0156H2.10938C0.945 17.0156 0 17.9606 0 19.125V57.0938C0 58.2581 0.945 59.2031 2.10938 59.2031H14.7656C17.2814 59.2031 19.4583 57.728 20.4778 55.5961L27.7256 58.012C30.0952 58.8023 32.5645 59.2031 35.0634 59.2031H52.7344C56.2233 59.2031 59.0625 56.3639 59.0625 52.875C59.0625 52.0523 58.905 51.2648 58.6181 50.5434C61.3013 49.8108 63.2812 47.3512 63.2812 44.4375C63.2812 42.8189 62.6695 41.3395 61.6655 40.2188C62.6695 39.098 63.2812 37.6186 63.2812 36C63.2812 34.3814 62.6695 32.902 61.6655 31.7812ZM16.875 52.875C16.875 54.038 15.9286 54.9844 14.7656 54.9844H4.21875V21.2344H14.7656C15.9286 21.2344 16.875 22.1808 16.875 23.3438V52.875ZM52.7344 33.8906H56.9531C58.1161 33.8906 59.0625 34.837 59.0625 36C59.0625 37.163 58.1161 38.1094 56.9531 38.1094H52.7344C51.57 38.1094 50.625 39.0544 50.625 40.2188C50.625 41.3831 51.57 42.3281 52.7344 42.3281H56.9531C58.1161 42.3281 59.0625 43.2745 59.0625 44.4375C59.0625 45.6005 58.1161 46.5469 56.9531 46.5469H52.7344C51.57 46.5469 50.625 47.4919 50.625 48.6562C50.625 49.8206 51.57 50.7656 52.7344 50.7656C53.8973 50.7656 54.8438 51.712 54.8438 52.875C54.8438 54.038 53.8973 54.9844 52.7344 54.9844H35.0634C33.0187 54.9844 30.998 54.6567 29.0588 54.0098L21.0938 51.3548V25.2534C24.4027 24.6248 27.6413 22.5295 30.5648 19.0997C33.4195 15.75 35.7342 11.3091 36.7566 7.21828L37.5061 4.21875H37.9688C40.2947 4.21875 42.1875 6.11156 42.1875 8.4375V10.5455C42.1875 13.3777 41.3016 18.81 40.1681 21.2344H35.8594C34.695 21.2344 33.75 22.1794 33.75 23.3438C33.75 24.5081 34.695 25.4531 35.8594 25.4531H56.9531C58.1161 25.4531 59.0625 26.3995 59.0625 27.5625C59.0625 28.7255 58.1161 29.6719 56.9531 29.6719H52.7344C51.57 29.6719 50.625 30.6169 50.625 31.7812C50.625 32.9456 51.57 33.8906 52.7344 33.8906Z" fill="url(#paint0_linear_66_6206)"/>
<defs>
<linearGradient id="paint0_linear_66_6206" x1="9.77099" y1="3.21393" x2="61.4535" y2="24.4052" gradientUnits="userSpaceOnUse">
<stop stop-color="#0165C4"/>
<stop offset="1" stop-color="#F738FE"/>
</linearGradient>
</defs>
</svg>
