<svg width="172" height="48" viewBox="0 0 172 48" fill="none" xmlns="http://www.w3.org/2000/svg">
<g clip-path="url(#clip0_66_6087)">
<path d="M60.0308 26.2004L53.4108 13.4973L57.1233 6L74.1357 40H67.2224L62.7918 31.499H45.4062V26.2004H60.0308Z" fill="black"/>
<path d="M55.1553 9.98455C56.0702 10.9299 56.8395 12.0197 57.4264 13.2154C57.6558 13.6794 57.8557 14.1569 58.0253 14.6498C58.4793 15.9591 58.7259 17.3646 58.7259 18.8279C58.7259 19.935 58.5858 21.0075 58.3204 22.0298C58.2277 22.3937 58.1182 22.7499 57.993 23.1003C57.5892 24.2421 57.0251 25.3069 56.3287 26.2696C55.6009 27.3863 54.6715 28.3259 53.5336 29.0845C53.5199 29.096 53.5061 29.1057 53.4923 29.1172C52.534 29.8142 51.4734 30.3783 50.3379 30.7808C49.0257 31.2486 47.6141 31.5028 46.1422 31.5028L44.043 31.549H33.5588V39.9995H25.1688V33.7555L27.3596 31.549L29.7683 29.1211L33.5588 25.3069L34.7152 24.142L35.7004 23.1466L35.749 23.1003H46.0355C46.4822 23.1003 46.9141 23.0291 47.3182 22.8982C47.6447 22.7923 47.9525 22.6498 48.2389 22.4707C48.7718 22.1396 49.2253 21.691 49.5637 21.1615L49.5702 21.1653L49.6042 21.096L49.6073 21.0922C49.7378 20.8804 49.85 20.6551 49.942 20.4202L55.1553 9.98455ZM46.4302 14.6652C46.3534 14.6575 46.2758 14.6517 46.1978 14.6498C46.1439 14.6459 46.0894 14.644 46.0355 14.644C45.981 14.644 45.9271 14.6459 45.8732 14.6498H32.2741L29.7683 17.1721L25.1688 21.8065L23.8842 23.1003H23.8836L22.6181 24.373L17.9037 29.1211L8.38974 19.5403V39.9995H0V6.19922H7.00932L17.9037 17.1721L20.4096 14.6498L23.8356 11.1976L25.1688 9.85557L28.7995 6.19922H47.2016C48.2872 6.28971 49.3333 6.52076 50.323 6.87311L46.4302 14.6652Z" fill="url(#paint0_linear_66_6087)"/>
<path d="M86.416 29.1127C85.0265 30.1235 83.4311 30.5122 81.707 30.5122C77.2811 30.5122 74.0131 27.2985 74.0131 22.9964C74.0131 18.6683 77.2811 15.4805 81.7327 15.4805C83.8427 15.4805 85.644 16.1026 87.1622 17.6058L88.3459 16.3876C86.7505 14.6512 84.3832 13.77 81.6556 13.77C76.1489 13.77 72.1348 17.6835 72.1348 22.9964C72.1348 28.3093 76.1489 32.2227 81.6298 32.2227C84.1258 32.2227 86.5446 31.4452 88.2429 29.9162V22.9964H86.416V29.1127Z" fill="black"/>
<path d="M98.3809 30.4088V23.6705H107.696V22.0378H98.3809V15.5844H108.828V13.9258H96.4767V32.0674H109.214V30.4088H98.3809Z" fill="black"/>
<path d="M129.722 13.9258V28.6465L118.117 13.9258H116.548V32.0674H118.452V17.3468L130.031 32.0674H131.601V13.9258H129.722Z" fill="black"/>
<path d="M145.29 32.2227C149.896 32.2227 152.006 29.942 152.006 27.2726C152.006 20.6639 140.915 23.6702 140.915 18.6942C140.915 16.88 142.382 15.4028 145.676 15.4028C147.271 15.4028 149.073 15.8952 150.616 16.906L151.26 15.3769C149.819 14.3662 147.709 13.77 145.676 13.77C141.096 13.77 139.037 16.0767 139.037 18.7461C139.037 25.4585 150.128 22.4003 150.128 27.3763C150.128 29.1645 148.661 30.59 145.29 30.59C142.923 30.59 140.632 29.657 139.346 28.3871L138.6 29.8643C139.938 31.2638 142.588 32.2227 145.29 32.2227Z" fill="black"/>
<path d="M172 13.9258H170.096L163.92 24.1111L157.745 13.9258H155.712L162.917 25.7957V32.0674H164.795V25.7957L172 13.9258Z" fill="black"/>
</g>
<defs>
<linearGradient id="paint0_linear_66_6087" x1="9.06762" y1="8.03412" x2="47.8611" y2="33.8895" gradientUnits="userSpaceOnUse">
<stop stop-color="#0165C4"/>
<stop offset="1" stop-color="#F738FE"/>
</linearGradient>
<clipPath id="clip0_66_6087">
<rect width="172" height="48" fill="white"/>
</clipPath>
</defs>
</svg>
