<svg width="247" height="48" viewBox="0 0 247 48" fill="none" xmlns="http://www.w3.org/2000/svg">
<path d="M85.3935 28.5183L75.9771 10.5844L81.2576 0L105.458 48H95.6233L89.3206 35.9986H64.5887V28.5183H85.3935Z" fill="white"/>
<path d="M78.4597 5.62543C79.7612 6.96007 80.8555 8.49859 81.6904 10.1866C82.0167 10.8417 82.3012 11.5158 82.5424 12.2116C83.1882 14.06 83.539 16.0443 83.539 18.1102C83.539 19.6731 83.3397 21.1872 82.9622 22.6305C82.8304 23.1443 82.6745 23.6471 82.4964 24.1418C81.9221 25.7537 81.1196 27.2569 80.1289 28.616C79.0936 30.1926 77.7715 31.5191 76.1529 32.5901C76.1333 32.6064 76.1137 32.6199 76.0941 32.6362C74.7309 33.6202 73.2222 34.4167 71.6069 34.9848C69.7403 35.6453 67.7323 36.0041 65.6383 36.0041L62.6522 36.0693H47.7382V47.9995H35.8033V39.1844L38.9197 36.0693L42.3462 32.6417L47.7382 27.2569L49.3831 25.6124L50.7847 24.2071L50.8538 24.1418H65.4866C66.1221 24.1418 66.7364 24.0413 67.3113 23.8565C67.7758 23.707 68.2136 23.5058 68.621 23.253C69.3791 22.7855 70.0242 22.1521 70.5055 21.4046L70.5147 21.4101L70.5631 21.3122L70.5675 21.3068C70.7533 21.0078 70.9129 20.6897 71.0437 20.3581L78.4597 5.62543ZM66.0481 12.2334C65.9388 12.2225 65.8284 12.2144 65.7175 12.2116C65.6408 12.2062 65.5633 12.2035 65.4866 12.2035C65.4091 12.2035 65.3324 12.2062 65.2557 12.2116H45.9107L42.3462 15.7725L35.8033 22.3152L33.9759 24.1418H33.975L32.1748 25.9386L25.4685 32.6417L11.9346 19.1159V47.9995H0V0.281433H9.97093L25.4685 15.7725L29.0331 12.2116L33.9068 7.33792L35.8033 5.44334L40.968 0.281433H67.1454C68.6898 0.409189 70.1778 0.735373 71.5856 1.23281L66.0481 12.2334Z" fill="url(#paint0_linear_66_6357)"/>
<path d="M125.254 32.6305C123.277 34.0574 121.008 34.6062 118.555 34.6062C112.259 34.6062 107.611 30.0693 107.611 23.9956C107.611 17.8854 112.259 13.3851 118.592 13.3851C121.593 13.3851 124.156 14.2633 126.315 16.3854L127.999 14.6657C125.73 12.2142 122.362 10.9702 118.482 10.9702C110.649 10.9702 104.938 16.4951 104.938 23.9956C104.938 31.4962 110.649 37.0211 118.445 37.0211C121.996 37.0211 125.437 35.9235 127.853 33.7648V23.9956H125.254V32.6305Z" fill="white"/>
<path d="M142.275 34.46V24.9471H155.526V22.6421H142.275V13.5315H157.136V11.1899H139.566V36.8016H157.685V34.46H142.275Z" fill="white"/>
<path d="M186.86 11.1899V31.9721L170.351 11.1899H168.118V36.8017H170.827V16.0197L187.299 36.8017H189.532V11.1899H186.86Z" fill="white"/>
<path d="M209.004 37.0211C215.557 37.0211 218.558 33.8013 218.558 30.0327C218.558 20.7027 202.782 24.9469 202.782 17.922C202.782 15.3608 204.868 13.2754 209.553 13.2754C211.823 13.2754 214.385 13.9705 216.582 15.3974L217.497 13.2388C215.447 11.8118 212.445 10.9702 209.553 10.9702C203.038 10.9702 200.11 14.2266 200.11 17.9952C200.11 27.4716 215.886 23.1541 215.886 30.179C215.886 32.7036 213.8 34.7161 209.004 34.7161C205.637 34.7161 202.379 33.3989 200.549 31.6061L199.487 33.6915C201.391 35.6673 205.161 37.0211 209.004 37.0211Z" fill="white"/>
<path d="M247 11.1899H244.291L235.506 25.5692L226.721 11.1899H223.829L234.078 27.9474V36.8017H236.75V27.9474L247 11.1899Z" fill="white"/>
<defs>
<linearGradient id="paint0_linear_66_6357" x1="12.8989" y1="2.87188" x2="67.825" y2="39.7584" gradientUnits="userSpaceOnUse">
<stop stop-color="#0165C4"/>
<stop offset="1" stop-color="#F738FE"/>
</linearGradient>
</defs>
</svg>
