<?xml version="1.0" encoding="UTF-8" standalone="no"?>
<!DOCTYPE svg PUBLIC "-//W3C//DTD SVG 1.1//EN" "http://www.w3.org/Graphics/SVG/1.1/DTD/svg11.dtd">
<svg width="100%" height="100%" viewBox="0 0 889 173" version="1.1" xmlns="http://www.w3.org/2000/svg" xmlns:xlink="http://www.w3.org/1999/xlink" xml:space="preserve" xmlns:serif="http://www.serif.com/" style="fill-rule:evenodd;clip-rule:evenodd;stroke-linejoin:round;stroke-miterlimit:2;">
    <g transform="matrix(1,0,0,1,-174.337,-158.169)">
        <g transform="matrix(1,0,0,0.12434,-7.78703,-1.2204)">
            <g transform="matrix(1,0,0,8.04248,10.5691,-16625.1)">
                <path d="M478.165,2329L444.353,2264.58L463.315,2226.56L550.207,2398.98L514.897,2398.98L492.267,2355.87L403.469,2355.87L403.469,2329L478.165,2329Z" style="fill-rule:nonzero;"/>
            </g>
        </g>
        <g transform="matrix(1,0,0,0.12434,-7.78703,-1.2204)">
            <g transform="matrix(0.976401,0,0,7.85269,-223.059,-8237.73)">
                <path d="M703.495,1232.98C708.281,1237.89 712.305,1243.55 715.375,1249.76C716.575,1252.17 717.621,1254.65 718.508,1257.21C720.883,1264.01 722.173,1271.31 722.173,1278.91C722.173,1284.66 721.44,1290.23 720.052,1295.54C719.567,1297.43 718.994,1299.28 718.339,1301.1C716.227,1307.03 713.276,1312.56 709.633,1317.56C705.826,1323.36 700.964,1328.24 695.012,1332.18C694.94,1332.24 694.868,1332.29 694.796,1332.35C689.783,1335.97 684.235,1338.9 678.295,1340.99C671.431,1343.42 664.047,1344.74 656.347,1344.74L645.366,1344.98L590.523,1344.98L590.523,1388.87L546.635,1388.87L546.635,1356.44L558.095,1344.98L570.695,1332.37L590.523,1312.56L596.572,1306.51L601.726,1301.34L601.98,1301.1L655.789,1301.1C658.126,1301.1 660.385,1300.73 662.499,1300.05C664.207,1299.5 665.817,1298.76 667.315,1297.83C670.103,1296.11 672.475,1293.78 674.245,1291.03L674.279,1291.05L674.457,1290.69L674.473,1290.67C675.156,1289.57 675.743,1288.4 676.224,1287.18L703.495,1232.98ZM657.854,1257.29C657.452,1257.25 657.046,1257.22 656.638,1257.21C656.356,1257.19 656.071,1257.18 655.789,1257.18C655.504,1257.18 655.222,1257.19 654.94,1257.21L583.803,1257.21L570.695,1270.31L546.635,1294.38L539.915,1301.1L539.912,1301.1L533.292,1307.71L508.631,1332.37L458.863,1282.61L458.863,1388.87L414.976,1388.87L414.976,1213.32L451.642,1213.32L508.631,1270.31L521.739,1257.21L539.661,1239.28L546.635,1232.31L565.627,1213.32L661.889,1213.32C667.568,1213.79 673.04,1214.99 678.217,1216.82L657.854,1257.29Z" style="fill:url(#_Linear1);fill-rule:nonzero;"/>
            </g>
        </g>
        <g transform="matrix(1,0,0,0.12434,-7.78703,-1.2204)">
            <g transform="matrix(2.61387,0,0,21.022,-2953.42,-47667.2)">
                <text x="1337.95px" y="2378.95px" style="font-family:'Montserrat-Regular', 'Montserrat';font-size:50px;">G<tspan x="1382.15px 1421.15px 1467.35px 1507.95px " y="2378.95px 2378.95px 2378.95px 2378.95px ">ENСY</tspan></text>
            </g>
        </g>
    </g>
    <defs>
        <linearGradient id="_Linear1" x1="0" y1="0" x2="1" y2="0" gradientUnits="userSpaceOnUse" gradientTransform="matrix(202.034,135.62,-135.62,202.034,462.409,1222.85)"><stop offset="0" style="stop-color:rgb(1,101,196);stop-opacity:1"/><stop offset="1" style="stop-color:rgb(247,56,254);stop-opacity:1"/></linearGradient>
    </defs>
</svg>
