<svg width="72" height="72" viewBox="0 0 72 72" fill="none" xmlns="http://www.w3.org/2000/svg">
<g clip-path="url(#clip0_66_6222)">
<path d="M35.9965 12.8022C23.2053 12.8022 12.7988 23.2087 12.7988 35.9999C12.7988 48.7911 23.2053 59.1976 35.9965 59.1976C48.7877 59.1976 59.1942 48.7911 59.1942 35.9999C59.1942 23.2087 48.7879 12.8022 35.9965 12.8022ZM35.9965 54.9799C25.531 54.9799 17.0166 46.4655 17.0166 35.9999C17.0166 25.5344 25.531 17.02 35.9965 17.02C46.462 17.02 54.9764 25.5344 54.9764 35.9999C54.9764 46.4655 46.4622 54.9799 35.9965 54.9799Z" fill="url(#paint0_linear_66_6222)"/>
<path d="M45.0502 28.1821L33.888 39.3442L26.9436 32.3999C26.1202 31.5763 24.7848 31.5763 23.9613 32.3999C23.1377 33.2235 23.1377 34.5587 23.9613 35.3823L32.3968 43.8178C32.8086 44.2296 33.3483 44.4356 33.8879 44.4356C34.4275 44.4356 34.9674 44.2297 35.379 43.8178L48.0323 31.1645C48.8559 30.3409 48.8559 29.0057 48.0323 28.1821C47.209 27.3586 45.8737 27.3586 45.0502 28.1821Z" fill="url(#paint1_linear_66_6222)"/>
<path d="M68.9802 21.2141C68.9732 21.2097 61.6146 16.805 61.6146 16.805L59.9628 9.96404C59.2299 6.92851 56.4387 4.89963 53.3247 5.14117L44.9393 5.79014C44.9393 5.79014 40.109 1.52711 40.0994 1.51909C37.7223 -0.505713 34.2714 -0.505713 31.8943 1.51909C31.8849 1.52711 27.0544 5.79014 27.0544 5.79014L18.6689 5.14117C15.58 4.90132 12.8102 6.89477 12.0496 9.8884L9.75007 17.2155C9.75007 17.2155 3.02878 21.2086 3.01993 21.2141C0.359503 22.8492 -0.706888 26.131 0.484489 29.0176L3.35369 35.9706L0.484489 42.9235C-0.706888 45.8101 0.359503 49.0919 3.02007 50.727C3.02822 50.7321 10.3725 55.1081 10.3725 55.1081L12.0312 61.9771C12.7246 64.8492 15.2606 66.8196 18.1689 66.8193C18.6137 66.8193 18.114 66.8362 26.9674 66.1577C26.9674 66.1577 31.8866 70.4744 31.8944 70.481C33.083 71.4934 34.54 71.9997 35.9971 71.9997C37.454 71.9997 38.9111 71.4934 40.0997 70.481C40.1075 70.4743 45.0267 66.1577 45.0267 66.1577L53.3249 66.7999C56.4379 67.0405 59.2302 65.0126 59.9629 61.9771L61.6148 55.136C70.6193 49.746 68.71 50.8938 68.9804 50.7269C71.6407 49.0918 72.707 45.8099 71.5157 42.9233L68.6465 35.9703L71.5157 29.0174C72.7069 26.131 71.6407 22.8493 68.9802 21.2141ZM64.4155 36.7751L67.6168 44.5325C68.0127 45.4916 67.6608 46.5818 66.7803 47.1286L58.6893 51.9718C58.2037 52.2624 57.8553 52.7361 57.7225 53.2862L55.8629 60.9874C55.6186 61.9991 54.6896 62.6749 53.6502 62.595L44.4662 61.8841C43.9006 61.8404 43.3395 62.0268 42.9125 62.4016L37.3546 67.2789C36.5658 67.9428 35.4281 67.9428 34.6392 67.2786L29.0816 62.4016C28.6545 62.0268 28.0933 61.84 27.5279 61.8841L18.3439 62.595C17.3053 62.6751 16.3755 61.9991 16.1313 60.9873L14.2643 53.2557C14.1312 52.7042 13.7813 52.2295 13.2938 51.9391L5.21836 47.1273C4.3391 46.5801 3.9879 45.4909 4.38353 44.5324L7.58481 36.7749C7.79753 36.2597 7.79753 35.6813 7.58481 35.166L4.38311 27.4086C3.98776 26.4506 4.33854 25.362 5.21682 24.8145L12.5979 20.4296C13.0444 20.1643 13.3773 19.7436 13.5328 19.248C16.253 10.5753 16.0995 11.0844 16.131 10.9538C16.3752 9.9421 17.3025 9.26529 18.3436 9.34627L27.6185 10.0641C28.1876 10.108 28.7491 9.91989 29.1767 9.54268L34.6412 4.71981C35.4289 4.05819 36.5643 4.05819 37.3522 4.71953L42.817 9.54268C43.2446 9.92017 43.8075 10.108 44.3752 10.0641L53.6501 9.34627C54.6875 9.26614 55.6185 9.94196 55.8627 10.9539L57.7223 18.655C57.8552 19.2052 58.2036 19.6788 58.6892 19.9695L66.7801 24.8127C67.6606 25.3594 68.0127 26.4494 67.6166 27.4086L64.4154 35.166C64.2028 35.6814 64.2028 36.2598 64.4155 36.7751Z" fill="url(#paint2_linear_66_6222)"/>
</g>
<defs>
<linearGradient id="paint0_linear_66_6222" x1="19.9625" y1="15.3209" x2="58.5469" y2="30.122" gradientUnits="userSpaceOnUse">
<stop stop-color="#0165C4"/>
<stop offset="1" stop-color="#F738FE"/>
</linearGradient>
<linearGradient id="paint1_linear_66_6222" x1="27.251" y1="28.4803" x2="45.3887" y2="38.9168" gradientUnits="userSpaceOnUse">
<stop stop-color="#0165C4"/>
<stop offset="1" stop-color="#F738FE"/>
</linearGradient>
<linearGradient id="paint2_linear_66_6222" x1="11.1173" y1="3.90908" x2="70.9954" y2="26.8788" gradientUnits="userSpaceOnUse">
<stop stop-color="#0165C4"/>
<stop offset="1" stop-color="#F738FE"/>
</linearGradient>
<clipPath id="clip0_66_6222">
<rect width="72" height="72" fill="white"/>
</clipPath>
</defs>
</svg>
