<svg width="20" height="18" viewBox="0 0 20 18" fill="none" xmlns="http://www.w3.org/2000/svg">
<path d="M19.314 15.5939C18.928 16.6839 17.396 17.5879 16.174 17.8519C15.338 18.0299 14.246 18.1719 10.57 16.6479C5.86801 14.6999 2.84001 9.92187 2.60401 9.61187C2.37801 9.30187 0.70401 7.08187 0.70401 4.78587C0.70401 2.48987 1.87001 1.37187 2.34001 0.891871C2.72601 0.497871 3.36401 0.317871 3.97601 0.317871C4.17401 0.317871 4.35201 0.327871 4.51201 0.335871C4.98201 0.355871 5.21801 0.383872 5.52801 1.12587C5.91401 2.05587 6.85401 4.35187 6.96601 4.58787C7.08001 4.82387 7.19401 5.14387 7.03401 5.45387C6.88401 5.77387 6.75201 5.91587 6.51601 6.18787C6.28001 6.45987 6.05601 6.66787 5.82001 6.95987C5.60401 7.21387 5.36001 7.48587 5.63201 7.95587C5.90401 8.41587 6.84401 9.94987 8.22801 11.1819C10.014 12.7719 11.462 13.2799 11.98 13.4959C12.366 13.6559 12.826 13.6179 13.108 13.3179C13.466 12.9319 13.908 12.2919 14.358 11.6619C14.678 11.2099 15.082 11.1539 15.506 11.3139C15.938 11.4639 18.224 12.5939 18.694 12.8279C19.164 13.0639 19.474 13.1759 19.588 13.3739C19.7 13.5719 19.7 14.5019 19.314 15.5939Z" fill="white"/>
</svg>
