<svg width="48" height="48" viewBox="0 0 48 48" fill="none" xmlns="http://www.w3.org/2000/svg">
<path d="M24 48C37.2548 48 48 37.2548 48 24C48 10.7452 37.2548 0 24 0C10.7452 0 0 10.7452 0 24C0 37.2548 10.7452 48 24 48Z" fill="url(#paint0_linear_66_6330)"/>
<path d="M10.9806 23.4799L34.1206 14.5579C35.1946 14.1699 36.1326 14.8199 35.7846 16.4439L35.7866 16.4419L31.8466 35.0039C31.5546 36.3199 30.7726 36.6399 29.6786 36.0199L23.6786 31.5979L20.7846 34.3859C20.4646 34.7059 20.1946 34.9759 19.5746 34.9759L20.0006 28.8699L31.1206 18.8239C31.6046 18.3979 31.0126 18.1579 30.3746 18.5819L16.6326 27.2339L10.7086 25.3859C9.42257 24.9779 9.39457 24.0999 10.9806 23.4799Z" fill="white"/>
<defs>
<linearGradient id="paint0_linear_66_6330" x1="7.41148" y1="2.60575" x2="47.3303" y2="17.9188" gradientUnits="userSpaceOnUse">
<stop stop-color="#0165C4"/>
<stop offset="1" stop-color="#F738FE"/>
</linearGradient>
</defs>
</svg>
