<svg width="48" height="48" viewBox="0 0 48 48" fill="none" xmlns="http://www.w3.org/2000/svg">
<path d="M24 48C37.2548 48 48 37.2548 48 24C48 10.7452 37.2548 0 24 0C10.7452 0 0 10.7452 0 24C0 37.2548 10.7452 48 24 48Z" fill="url(#paint0_linear_66_6327)"/>
<path fill-rule="evenodd" clip-rule="evenodd" d="M23.0943 34.526H24.978C24.978 34.526 25.547 34.4635 25.8375 34.1503C26.1049 33.8628 26.0963 33.3229 26.0963 33.3229C26.0963 33.3229 26.0595 30.7953 27.2326 30.4231C28.389 30.0565 29.874 32.866 31.448 33.9463C32.6382 34.7638 33.5426 34.5846 33.5426 34.5846L37.7511 34.526C37.7511 34.526 39.9526 34.3903 38.9088 32.6594C38.8232 32.5178 38.3008 31.3789 35.7797 29.0387C33.1408 26.5894 33.4942 26.9856 36.673 22.7488C38.6089 20.1686 39.3828 18.5934 39.1411 17.9187C38.9105 17.2761 37.4867 17.446 37.4867 17.446L32.7481 17.4755C32.7481 17.4755 32.3969 17.4276 32.1363 17.5833C31.8818 17.736 31.7179 18.092 31.7179 18.092C31.7179 18.092 30.9679 20.0886 29.9677 21.7867C27.8577 25.3697 27.014 25.5588 26.6692 25.3363C25.867 24.8178 26.0672 23.2533 26.0672 22.1418C26.0672 18.6696 26.5939 17.2218 25.0417 16.847C24.5266 16.7225 24.1476 16.6404 22.8303 16.6271C21.1396 16.6096 19.7085 16.6323 18.8982 17.0293C18.3591 17.2933 17.9433 17.8815 18.1966 17.9153C18.5097 17.9572 19.2191 18.1065 19.5951 18.6186C20.0807 19.2792 20.0636 20.7629 20.0636 20.7629C20.0636 20.7629 20.3425 24.8503 19.412 25.3581C18.7733 25.7064 17.8971 24.9953 16.016 21.7447C15.0521 20.0797 14.3243 18.2392 14.3243 18.2392C14.3243 18.2392 14.184 17.8952 13.9337 17.7112C13.63 17.4883 13.2056 17.4173 13.2056 17.4173L8.70276 17.4468C8.70276 17.4468 8.0268 17.4657 7.77866 17.7596C7.5579 18.021 7.76112 18.5617 7.76112 18.5617C7.76112 18.5617 11.2864 26.8093 15.278 30.9656C18.938 34.7762 23.0943 34.526 23.0943 34.526Z" fill="white"/>
<defs>
<linearGradient id="paint0_linear_66_6327" x1="7.41148" y1="2.60575" x2="47.3303" y2="17.9188" gradientUnits="userSpaceOnUse">
<stop stop-color="#0165C4"/>
<stop offset="1" stop-color="#F738FE"/>
</linearGradient>
</defs>
</svg>
