<svg width="33" height="19" viewBox="0 0 33 19" fill="none" xmlns="http://www.w3.org/2000/svg">
<path fill-rule="evenodd" clip-rule="evenodd" d="M16.0943 18.526H17.978C17.978 18.526 18.547 18.4635 18.8375 18.1503C19.1049 17.8628 19.0963 17.3229 19.0963 17.3229C19.0963 17.3229 19.0595 14.7953 20.2326 14.4231C21.389 14.0565 22.874 16.866 24.448 17.9463C25.6382 18.7638 26.5426 18.5846 26.5426 18.5846L30.7511 18.526C30.7511 18.526 32.9526 18.3903 31.9088 16.6594C31.8232 16.5178 31.3008 15.3789 28.7797 13.0387C26.1408 10.5894 26.4942 10.9856 29.673 6.74885C31.6089 4.16865 32.3828 2.59341 32.1411 1.91873C31.9105 1.27614 30.4867 1.44598 30.4867 1.44598L25.7481 1.4755C25.7481 1.4755 25.3969 1.42759 25.1363 1.58332C24.8818 1.73605 24.7179 2.092 24.7179 2.092C24.7179 2.092 23.9679 4.08865 22.9677 5.78667C20.8577 9.36969 20.014 9.55879 19.6692 9.33632C18.867 8.8178 19.0672 7.25325 19.0672 6.14177C19.0672 2.66956 19.5939 1.22181 18.0417 0.847034C17.5266 0.722538 17.1476 0.640396 15.8303 0.627133C14.1396 0.609592 12.7085 0.632266 11.8982 1.02929C11.3591 1.29325 10.9433 1.88151 11.1966 1.91531C11.5097 1.95723 12.2191 2.10654 12.5951 2.61865C13.0807 3.27921 13.0636 4.7629 13.0636 4.7629C13.0636 4.7629 13.3425 8.85031 12.412 9.35814C11.7733 9.70639 10.8971 8.99535 9.01596 5.74475C8.05207 4.07966 7.32435 2.23917 7.32435 2.23917C7.32435 2.23917 7.18402 1.8952 6.93374 1.71123C6.62999 1.48834 6.20559 1.41732 6.20559 1.41732L1.70276 1.44684C1.70276 1.44684 1.0268 1.46567 0.778659 1.75958C0.557902 2.02098 0.761118 2.56175 0.761118 2.56175C0.761118 2.56175 4.28638 10.8093 8.27796 14.9656C11.938 18.7762 16.0943 18.526 16.0943 18.526Z" fill="white"/>
</svg>
