<svg width="48" height="48" viewBox="0 0 48 48" fill="none" xmlns="http://www.w3.org/2000/svg">
<path d="M24 48C37.2548 48 48 37.2548 48 24C48 10.7452 37.2548 0 24 0C10.7452 0 0 10.7452 0 24C0 37.2548 10.7452 48 24 48Z" fill="url(#paint0_linear_66_6324)"/>
<path d="M31.8525 14.9717H16.1451C15.5174 14.9717 14.8958 15.0954 14.3159 15.3357C13.736 15.576 13.2092 15.9282 12.7655 16.3722C12.3218 16.8162 11.9699 17.3433 11.73 17.9233C11.4901 18.5034 11.3668 19.125 11.3672 19.7527V28.2475C11.3668 28.8752 11.4901 29.4968 11.73 30.0769C11.9699 30.6569 12.3218 31.184 12.7655 31.628C13.2092 32.072 13.736 32.4242 14.3159 32.6645C14.8958 32.9048 15.5174 33.0285 16.1451 33.0285H31.8525C32.4802 33.0285 33.1017 32.9048 33.6816 32.6645C34.2615 32.4242 34.7883 32.072 35.232 31.628C35.6758 31.184 36.0276 30.6569 36.2676 30.0769C36.5075 29.4968 36.6308 28.8752 36.6303 28.2475V19.7527C36.6308 19.125 36.5075 18.5034 36.2676 17.9233C36.0276 17.3433 35.6758 16.8162 35.232 16.3722C34.7883 15.9282 34.2615 15.576 33.6816 15.3357C33.1017 15.0954 32.4802 14.9717 31.8525 14.9717ZM20.6703 27.8717V20.1285L27.3272 24.0001L20.6703 27.8717Z" fill="white"/>
<defs>
<linearGradient id="paint0_linear_66_6324" x1="7.41148" y1="2.60575" x2="47.3303" y2="17.9188" gradientUnits="userSpaceOnUse">
<stop stop-color="#0165C4"/>
<stop offset="1" stop-color="#F738FE"/>
</linearGradient>
</defs>
</svg>
