<svg width="26" height="20" viewBox="0 0 26 20" fill="none" xmlns="http://www.w3.org/2000/svg">
<path d="M20.8525 0.97168H5.14508C4.51738 0.97168 3.89582 1.09537 3.31593 1.33568C2.73605 1.57599 2.20919 1.92821 1.76548 2.37221C1.32177 2.81621 0.969903 3.3433 0.729977 3.92334C0.490051 4.50339 0.366774 5.12502 0.367189 5.75273V14.2475C0.366774 14.8752 0.490051 15.4968 0.729977 16.0769C0.969903 16.6569 1.32177 17.184 1.76548 17.628C2.20919 18.072 2.73605 18.4242 3.31593 18.6645C3.89582 18.9048 4.51738 19.0285 5.14508 19.0285H20.8525C21.4802 19.0285 22.1017 18.9048 22.6816 18.6645C23.2615 18.4242 23.7883 18.072 24.232 17.628C24.6758 17.184 25.0276 16.6569 25.2676 16.0769C25.5075 15.4968 25.6308 14.8752 25.6303 14.2475V5.75273C25.6308 5.12502 25.5075 4.50339 25.2676 3.92334C25.0276 3.3433 24.6758 2.81621 24.232 2.37221C23.7883 1.92821 23.2615 1.57599 22.6816 1.33568C22.1017 1.09537 21.4802 0.97168 20.8525 0.97168ZM9.67035 13.8717V6.12852L16.3272 10.0001L9.67035 13.8717Z" fill="white"/>
</svg>
