<svg width="209" height="100" viewBox="0 0 209 100" fill="none" xmlns="http://www.w3.org/2000/svg">
<g clip-path="url(#clip0_47_574)">
<path d="M5.08293 39.8061C10.3968 29.6733 16.2546 19.4832 26.7786 14.0489C36.1864 9.20063 47.2398 8.66054 57.4474 10.7981C68.5615 13.1302 78.697 19.1833 86.9855 26.8531C91.2498 30.7982 95.0995 35.1494 98.597 39.7882C100.323 42.0969 101.978 44.4755 103.549 46.8909C105.119 49.3064 106.717 51.7569 107.366 54.5932C107.91 57.0203 107.456 59.7163 105.795 61.6097C104.04 63.6178 101.266 63.9612 98.7718 63.4697C93.1369 62.3571 88.0933 57.8381 84.5953 53.4524C77.8139 44.9774 73.9794 31.5759 80.5953 21.8778C87.2111 12.1798 100.442 10.7773 111.187 13.1573C121.932 15.5374 133.373 21.2503 142.961 27.5185C161.16 39.4088 176.297 56.0209 185.978 75.563C187.186 77.9797 188.277 80.4449 189.284 82.9469C190.45 85.8172 184.047 84.2904 183.209 82.3164C175.801 64.7568 164.448 49.1643 149.718 37.0508C142.445 31.077 134.449 25.9449 125.904 22.0249C116.69 17.7824 106.027 13.8934 96.0004 17.6502C91.4926 19.3397 87.5208 22.5217 85.4433 26.9417C83.3658 31.3617 83.1576 36.8425 84.3317 41.7554C85.5058 46.6683 87.965 51.0326 91.2591 54.6643C92.6709 56.2208 94.2694 57.6744 96.0317 58.8323C96.848 59.3635 97.5866 59.8848 98.5623 59.5341C99.7189 59.1274 100.448 57.9858 100.857 56.8825C102.527 52.3157 98.2786 47.3757 95.8542 43.8546C92.9364 39.6219 89.7424 35.5756 86.2271 31.8208C79.7796 24.9392 71.9608 18.9118 62.9421 15.8651C53.4848 12.6678 42.7529 12.7898 33.5879 16.8461C22.6188 21.6857 16.6146 32.1578 11.2367 42.2982C10.1166 44.4029 4.07785 41.7513 5.10242 39.7769L5.08689 39.7749L5.08293 39.8061Z" fill="url(#paint0_linear_47_574)"/>
<path d="M168.923 71.3039L182.781 84.4458L189.457 90.7709C191.317 92.5268 193.222 94.9215 195.701 95.7751L192.177 95.6906C193.992 93.5794 193.968 90.3004 194.128 87.6779C194.3 84.7088 194.349 81.7239 194.412 78.741C194.542 72.7596 194.558 66.4315 196.365 60.6635C197.053 58.4879 202.917 60.8958 202.5 63.1849C201.318 69.6179 200.97 75.9514 200.835 82.4701C200.759 85.673 200.698 88.8779 200.385 92.0823C200.132 94.693 199.695 97.0112 197.952 99.0525C197.212 99.9078 195.244 99.246 194.427 98.968C191.358 97.9127 188.97 95.8365 186.647 93.626C184.084 91.1951 181.521 88.7642 178.943 86.3313L163.55 71.7281C162.494 70.7233 163.233 69.6304 164.467 69.4867C166.116 69.3009 167.782 70.225 168.937 71.3215L168.923 71.3039Z" fill="url(#paint1_linear_47_574)"/>
</g>
<defs>
<linearGradient id="paint0_linear_47_574" x1="31.6276" y1="61.3286" x2="117.477" y2="-17.1558" gradientUnits="userSpaceOnUse">
<stop stop-color="#0165C4"/>
<stop offset="1" stop-color="#F738FE"/>
</linearGradient>
<linearGradient id="paint1_linear_47_574" x1="166.332" y1="93.4685" x2="200.697" y2="85.0022" gradientUnits="userSpaceOnUse">
<stop stop-color="#0165C4"/>
<stop offset="1" stop-color="#F738FE"/>
</linearGradient>
<clipPath id="clip0_47_574">
<rect width="200.417" height="75.0098" fill="white" transform="matrix(0.992002 0.126223 0.126223 -0.992002 0.602051 74.5269)"/>
</clipPath>
</defs>
</svg>
